<svg xmlns="http://www.w3.org/2000/svg" width="55.376" height="52.103" viewBox="0 0 55.376 52.103"><g transform="translate(-72.815 -45.81)"><circle cx="8.92" cy="8.92" r="8.92" transform="translate(75.868 63.65) rotate(-90)" fill="#0086ad"/><g transform="translate(72.815 97.912) rotate(-90)"><path d="M14.789,29.627A14.822,14.822,0,1,1,29.625,14.652l.109,11.983a2.857,2.857,0,0,1-2.83,2.882l-11.979.109Zm.05-25.884h-.1a11.07,11.07,0,0,0,.054,22.139h.1l11.092-.1-.1-11.1A11.05,11.05,0,0,0,14.839,3.743Z" fill="#0086ad"/><path d="M14.9,29.627A14.793,14.793,0,0,1,.109,14.974L0,2.992A2.857,2.857,0,0,1,2.83.109L14.809,0h.138A14.805,14.805,0,0,1,25.485,25.187a14.738,14.738,0,0,1-10.451,4.44ZM3.752,3.845l.1,11.1a11.062,11.062,0,0,0,18.962,7.624,11.073,11.073,0,0,0-.13-15.656,10.93,10.93,0,0,0-7.841-3.164Zm-.887.008Z" transform="translate(14.235 25.749)" fill="#0086ad"/><rect width="3.707" height="15.843" rx="1.853" transform="matrix(1, -0.009, 0.009, 1, 14.137, 15.794)" fill="#0086ad"/><rect width="3.73" height="15.943" rx="1.865" transform="translate(25.957 24.109) rotate(-0.521)" fill="#0086ad"/></g></g></svg>